<svg width="85" height="72" viewBox="0 0 85 72" fill="none" xmlns="http://www.w3.org/2000/svg">
<path fill-rule="evenodd" clip-rule="evenodd" d="M84.5 26C84.5 29.3 81.8 32 78.5 32H76.9V62.2H82.1C82.653 62.2 83.1 62.647 83.1 63.2V66.7C83.1 69.347 80.946 71.5 78.3 71.5H4.8C2.153 71.5 0 69.346 0 66.7V63.2C0 62.647 0.448 62.2 1 62.2H6.5V23C6.5 19.526 9.326 16.7 12.8 16.7H52.5V6C52.5 2.7 55.2 0 58.5 0H78.5C81.8 0 84.5 2.7 84.5 6V26ZM77.6 15.8C77.6 10.94 73.66 7 68.8 7C63.94 7 60 10.94 60 15.8C60 20.66 63.94 24.6 68.8 24.6C73.66 24.6 77.6 20.66 77.6 15.8ZM78.3 69.5C79.844 69.5 81.1 68.244 81.1 66.7V64.201H49.783C49.341 65.992 47.679 67.1 45.3 67.1H38C35.622 67.1 33.959 65.991 33.517 64.2H2V66.7C2 68.244 3.256 69.5 4.8 69.5H78.3ZM48.9 62.2H74.9V32H58.5C55.2 32 52.5 29.3 52.5 26V18.7H12.8C10.469 18.7 8.5 20.669 8.5 23V62.2H34.4C34.952 62.2 35.4 62.647 35.4 63.2C35.4 64.852 37.029 65.099 38 65.099H45.299C46.271 65.099 47.9 64.852 47.9 63.2C47.9 62.647 48.347 62.2 48.9 62.2ZM68.8 22.6C72.555 22.6 75.6 19.556 75.6 15.8C75.6 12.044 72.555 9 68.8 9C65.045 9 62 12.044 62 15.8C62 19.556 65.044 22.6 68.8 22.6ZM68.8 13C70.346 13 71.6 14.254 71.6 15.8C71.6 17.346 70.346 18.6 68.8 18.6C67.254 18.6 66 17.346 66 15.8C66 14.254 67.254 13 68.8 13ZM32.2 41.9C32 43.7 30.4 45.1 28.5 45.1C26.4 45.1 24.8 43.4 24.8 41.4V40.8C25.1 39 26.6 37.6 28.5 37.6H28.9C29.6 37.8 30.3 38.1 30.9 38.6C31.7 39.3 32.2 40.3 32.2 41.4V41.9ZM28.4 46.7H32.6C34.1 46.7 35.4 47.8 35.6 49.2L36.4 54.5H20.5L21.3 49.2C21.5 47.7 22.7 46.7 24.2 46.7H28.4ZM50.7 46.7C49.2 46.7 48 47.7 47.8 49.2L47 54.5H62.9L62.1 49.2C61.9 47.8 60.6 46.7 59.1 46.7H54.9H50.7ZM55 37.6H55.4C56.1 37.8 56.8 38.1 57.4 38.6C58.2 39.3 58.7 40.3 58.7 41.4V41.9C58.5 43.7 56.9 45.1 55 45.1C52.9 45.1 51.3 43.4 51.3 41.4V40.8C51.6 39 53.1 37.6 55 37.6Z" fill="white"/>
</svg>
