<svg width="77" height="73" viewBox="0 0 77 73" fill="none" xmlns="http://www.w3.org/2000/svg">
<path fill-rule="evenodd" clip-rule="evenodd" d="M72.1 55.3H65.797L63.19 41.458C62.42 36.066 57.737 32 52.3 32H45.983C51.342 29.136 55 23.489 55 17C55 13.547 54.043 10.313 52.233 7.646C49.157 2.93 43.704 0 38 0C28.626 0 21 7.626 21 17C21 20.24 21.978 23.553 23.766 26.35C23.766 26.351 23.766 26.351 23.767 26.352L23.768 26.353C23.769 26.355 23.77 26.357 23.771 26.358C25.396 28.767 27.552 30.686 30.017 31.999H23.7C18.157 31.999 13.577 35.978 12.816 41.42L10.293 55.3H4C1.8 55.3 0 57.1 0 59.3V68.9C0 71.1 1.8 72.9 4 72.9H72.1C74.3 72.9 76.1 71.1 76.1 68.9V59.3C76.1 57.1 74.3 55.3 72.1 55.3ZM26.019 26.059L33.452 21.134C33.674 20.988 33.827 20.759 33.88 20.498C33.932 20.238 33.879 19.967 33.732 19.746C33.211 18.964 32.9 17.938 32.9 17C32.9 14.188 35.188 11.9 38 11.9C39.77 11.9 41.282 12.732 42.26 14.243C42.406 14.468 42.634 14.624 42.896 14.679C43.155 14.733 43.43 14.681 43.653 14.533L51.097 9.601C52.343 11.767 53 14.303 53 17C53 25.271 46.271 32 38 32C33.309 32 28.895 29.79 26.019 26.059ZM14.79 41.738C15.418 37.255 19.166 34 23.7 34H52.3C56.749 34 60.579 37.328 61.218 41.784L63.762 55.3H12.325L14.79 41.738ZM14.7 63.1L12.5 64.7C12.3 64.8 12.2 65.1 12.3 65.3L13.1 67.8C13.3 68.3 12.7 68.8 12.2 68.4L10.1 67C9.9 66.9 9.6 66.9 9.4 67L7.2 68.6C6.7 68.9 6.1 68.5 6.3 68L7.1 65.5C7.2 65.3 7.1 65 6.9 64.9L4.7 63.3C4.2 63 4.5 62.3 5 62.3H7.7C8 62.3 8.2 62.1 8.3 61.9L9.1 59.4C9.3 58.6 10.1 58.6 10.3 59.2L11.1 61.7C11.2 61.9 11.4 62.1 11.7 62.1H14.4C15 62.1 15.2 62.8 14.7 63.1ZM28.8 63.1L26.6 64.7C26.4 64.8 26.3 65.1 26.4 65.3L27.2 67.8C27.4 68.3 26.8 68.8 26.3 68.4L24.2 67C24 66.9 23.7 66.9 23.5 67L21.3 68.6C20.8 68.9 20.2 68.5 20.4 68L21.2 65.5C21.3 65.3 21.2 65 21 64.9L19 63.1C18.5 62.8 18.8 62.1 19.3 62.1H22C22.3 62.1 22.5 61.9 22.6 61.7L23.4 59.2C23.5 58.6 24.3 58.6 24.4 59.2L25.2 61.7C25.3 61.9 25.5 62.1 25.8 62.1H28.5C29.1 62.1 29.3 62.8 28.8 63.1ZM43 63.1L40.8 64.7C40.6 64.8 40.5 65.1 40.6 65.3L41.4 67.8C41.6 68.3 41 68.8 40.5 68.4L38.4 67C38.2 66.9 37.9 66.9 37.7 67L35.5 68.6C35 68.9 34.4 68.5 34.6 68L35.4 65.5C35.5 65.3 35.4 65 35.2 64.9L33 63.3C32.5 63 32.8 62.3 33.3 62.3H36C36.3 62.3 36.5 62.1 36.6 61.9L37.4 59.4C37.7 58.6 38.4 58.6 38.6 59.2L39.4 61.7C39.5 61.9 39.7 62.1 40 62.1H42.7C43.3 62.1 43.5 62.8 43 63.1ZM57.2 63.1L55 64.7C54.8 64.8 54.7 65.1 54.8 65.3L55.6 67.8C55.8 68.3 55.2 68.8 54.7 68.4L52.6 67C52.4 66.9 52.1 66.9 51.9 67L49.7 68.6C49.2 68.9 48.6 68.5 48.8 68L49.6 65.5C49.7 65.3 49.6 65 49.4 64.9L47.2 63.3C46.7 63 47 62.3 47.5 62.3H50.2C50.5 62.3 50.7 62.1 50.8 61.9L51.6 59.4C51.8 58.6 52.6 58.6 52.8 59.2L53.6 61.7C53.7 61.9 53.9 62.1 54.2 62.1H56.9C57.5 62.1 57.7 62.8 57.2 63.1ZM71.3 63.1L69.1 64.7C68.9 64.8 68.8 65.1 68.9 65.3L69.7 67.8C69.9 68.3 69.3 68.8 68.8 68.4L66.7 67C66.5 66.9 66.2 66.9 66 67L63.8 68.6C63.3 68.9 62.7 68.5 62.9 68L63.7 65.5C63.8 65.3 63.7 65 63.5 64.9L61.3 63.3C60.8 63 61.1 62.3 61.6 62.3H64.3C64.6 62.3 64.8 62.1 64.9 61.9L65.7 59.4C66 58.6 66.8 58.6 66.9 59.2L67.7 61.7C67.8 61.9 68 62.1 68.3 62.1H71C71.6 62.1 71.8 62.8 71.3 63.1Z" fill="white"/>
</svg>
