<svg width="70" height="81" viewBox="0 0 70 81" fill="none" xmlns="http://www.w3.org/2000/svg">
<path fill-rule="evenodd" clip-rule="evenodd" d="M42.2 18.7C42.461 18.7 42.722 18.598 42.918 18.396L49.118 11.996C49.3 11.809 49.4 11.56 49.4 11.3V1C49.4 0.448 48.953 0 48.4 0C47.847 0 47.4 0.448 47.4 1V10.895L41.482 17.004C41.097 17.4 41.107 18.034 41.504 18.418C41.698 18.606 41.949 18.7 42.2 18.7ZM55.574 26.875C55.573 26.872 55.571 26.87 55.57 26.867C55.546 26.766 55.496 26.676 55.443 26.588C55.4405 26.5837 55.4383 26.5792 55.4362 26.5746C55.4333 26.5682 55.4308 26.5616 55.4283 26.5549L55.4283 26.5549C55.4225 26.5397 55.4167 26.5246 55.407 26.512C55.333 26.41 55.239 26.323 55.131 26.255L55.1301 26.2542L55.1291 26.2534C55.1287 26.2531 55.1284 26.253 55.128 26.253C55.1017 26.2369 55.0718 26.2275 55.0418 26.2181C55.0216 26.2118 55.0013 26.2054 54.982 26.197C54.9641 26.1895 54.9464 26.1816 54.9288 26.1736L54.9286 26.1736C54.8754 26.1496 54.8225 26.1258 54.764 26.116L54.7604 26.1148L54.7585 26.114L54.7568 26.1133L54.7554 26.1127L54.753 26.112L47.054 24.912C46.942 24.895 46.833 24.901 46.726 24.919C46.7225 24.9195 46.719 24.9192 46.7155 24.919L46.7124 24.9188C46.7099 24.9187 46.7075 24.9186 46.705 24.919L36.257 26.99L34.243 24.005L36.709 18.616C36.825 18.362 36.83 18.071 36.722 17.813L33.822 10.913C33.8206 10.9094 33.8186 10.9065 33.8165 10.9038L33.8122 10.8988C33.8105 10.8968 33.8088 10.8948 33.8073 10.8926L33.805 10.889C33.7915 10.8601 33.7731 10.8357 33.7544 10.8111L33.7544 10.8111C33.744 10.7974 33.7336 10.7836 33.724 10.769L33.7105 10.748C33.6684 10.6821 33.627 10.6175 33.571 10.566C33.5619 10.5575 33.5512 10.5516 33.5406 10.5456C33.5325 10.5411 33.5243 10.5366 33.517 10.531C33.435 10.465 33.349 10.406 33.252 10.369C33.226 10.3587 33.1983 10.355 33.1702 10.3513C33.1518 10.3488 33.1332 10.3464 33.115 10.342L33.0839 10.3348C33.0159 10.3189 32.9492 10.3033 32.878 10.305C32.8756 10.305 32.8732 10.3046 32.8709 10.3041L32.8662 10.3029L32.862 10.3018C32.86 10.3013 32.858 10.301 32.856 10.301C20.769 10.831 11.3 20.714 11.3 32.8C11.3 39.844 14.665 46.572 20.31 50.808C22.655 52.521 24 55.143 24 58V62.7C24 63.066 24.207 63.373 24.5 63.547V66.1H24.4C23.848 66.1 23.4 66.547 23.4 67.1C23.4 67.653 23.848 68.1 24.4 68.1H24.5V70.4H24.4C23.848 70.4 23.4 70.847 23.4 71.4C23.4 71.953 23.848 72.4 24.4 72.4H24.5V73.7C24.5 75.354 25.846 76.7 27.5 76.7H28.703C29.179 79.11 31.332 80.9 33.8 80.9C36.347 80.9 38.429 79.048 38.898 76.7H40.2C41.854 76.7 43.2 75.354 43.2 73.7V72.4H43.3C43.853 72.4 44.3 71.953 44.3 71.4C44.3 70.847 43.853 70.4 43.3 70.4H43.2V68.1H43.3C43.853 68.1 44.3 67.653 44.3 67.1C44.3 66.547 43.853 66.1 43.3 66.1H43.2V63.548C43.494 63.374 43.7 63.068 43.7 62.701V58C43.7 55.122 45.079 52.396 47.399 50.7C53.575 46.069 56.901 38.675 56.296 30.924C56.1913 29.5459 55.8788 28.1937 55.5766 26.8862L55.5766 26.8861L55.574 26.875ZM41.2 73.7C41.2 74.252 40.752 74.7 40.2 74.7H27.5C26.949 74.7 26.5 74.252 26.5 73.7V72.4H41.2V73.7ZM41.2 70.4H26.5V68.1H41.2V70.4ZM26.5 66.1V63.7H30.4H37.2H41.2V66.1H26.5ZM31.4 54.9H36.2V61.7H31.4V54.9ZM46.21 49.093C43.386 51.156 41.7 54.486 41.7 58V61.7H38.2V53.9V48.4C38.2 47.373 38.796 46.434 39.729 46.004L41.83 45.004C42.329 44.766 42.541 44.169 42.304 43.671C42.066 43.172 41.472 42.961 40.971 43.197L38.881 44.192C37.252 44.943 36.2 46.596 36.2 48.4V52.9H31.4V48.4C31.4 46.595 30.348 44.943 28.73 44.198L26.63 43.198C26.131 42.961 25.534 43.171 25.297 43.671C25.06 44.169 25.271 44.766 25.77 45.004L27.881 46.009C28.804 46.435 29.4 47.373 29.4 48.401V53.901V61.701H26V58C26 54.498 24.356 51.287 21.5 49.2C16.365 45.348 13.3 39.217 13.3 32.8C13.3 22.018 21.578 13.182 32.262 12.362L34.708 18.183L32.486 23.039L24.492 22.304C23.938 22.256 23.455 22.659 23.405 23.208C23.354 23.758 23.759 24.245 24.309 24.295L32.538 25.052L34.972 28.659C35.16 28.938 35.473 29.099 35.801 29.099C35.865 29.099 35.931 29.093 35.995 29.08L44.818 27.331L40.665 33.931L32.647 36.031C32.113 36.171 31.793 36.718 31.933 37.252C32.05 37.703 32.456 38 32.899 38C32.982 38 33.068 37.99 33.153 37.967L41.552 35.767C41.798 35.703 42.01 35.547 42.146 35.332L47.396 26.989L53.775 27.984C54.009 29.014 54.224 30.062 54.302 31.078C54.854 38.145 51.825 44.882 46.21 49.093ZM54.6 18.2H68.4C68.953 18.2 69.4 18.648 69.4 19.2C69.4 19.752 68.953 20.2 68.4 20.2H54.6C54.047 20.2 53.6 19.752 53.6 19.2C53.6 18.648 54.047 18.2 54.6 18.2ZM56.8 12.3C57.07 12.3 57.338 12.192 57.535 11.978L63.435 5.578C63.809 5.172 63.784 4.539 63.377 4.165C62.971 3.791 62.339 3.817 61.964 4.223L56.064 10.623C55.69 11.029 55.715 11.662 56.122 12.036C56.314 12.212 56.558 12.3 56.8 12.3ZM12.3 58.3L0 53.9L6.4 48.2L12.3 49V58.3ZM60.7 32.5L58.8 46.7L68.3 40.1L67.3 32.8L60.7 32.5ZM18 1.5H22L23.7 8.1L14.4 12.3L18 1.5Z" fill="white"/>
</svg>
