<svg width="48" height="48" viewBox="0 0 48 48" fill="none" xmlns="http://www.w3.org/2000/svg">
<g clip-path="url(#clip0_13_9)">
<mask id="mask0_13_9" style="mask-type:luminance" maskUnits="userSpaceOnUse" x="0" y="0" width="48" height="48">
<path d="M48 0H0V48H48V0Z" fill="white"/>
</mask>
<g mask="url(#mask0_13_9)">
<path d="M22.1001 1.6C22.7001 -0.2 25.2001 -0.2 25.9001 1.6C26.1001 2.2 26.3001 2.8 26.5001 3.3C29.5001 11.7 36.2001 18.5 44.6001 21.4C45.2001 21.6 45.8001 21.8 46.3001 22C48.1001 22.6 48.1001 25.1 46.3001 25.8C45.7001 26 45.1001 26.2 44.6001 26.4C36.2001 29.4 29.4001 36.1 26.5001 44.5C26.3001 45.1 26.1001 45.7 25.9001 46.2C25.3001 48 22.8001 48 22.1001 46.2C21.9001 45.6 21.7001 45 21.5001 44.5C18.5001 36.1 11.8001 29.3 3.4001 26.4C2.8001 26.2 2.2001 26 1.7001 25.8C-0.0999025 25.2 -0.0999025 22.7 1.7001 22C2.3001 21.8 2.9001 21.6 3.4001 21.4C11.8001 18.4 18.6001 11.7 21.5001 3.3C21.7001 2.8 21.9001 2.2 22.1001 1.6Z" fill="black"/>
</g>
</g>
<defs>
<clipPath id="clip0_13_9">
<rect width="48" height="48" fill="white"/>
</clipPath>
</defs>
</svg>
