<svg width="48" height="48" viewBox="0 0 48 48" fill="none" xmlns="http://www.w3.org/2000/svg">
<path d="M17.3999 6.3001C19.1999 4.5001 20.0999 3.6001 21.1999 3.1001C22.2999 2.6001 23.4999 2.6001 25.9999 2.6001C29.0999 2.6001 32.1999 2.7001 35.3999 2.7001C39.4999 2.8001 41.5999 2.9001 42.1999 4.1001C42.7999 5.4001 41.4999 6.7001 38.5999 9.7001C33.8999 14.4001 28.7999 19.3001 23.9999 24.2001C19.1999 24.2001 14.3999 24.2001 9.6999 24.1001C5.5999 24.0001 3.4999 23.9001 2.8999 22.7001C2.2999 21.4001 3.5999 20.1001 6.4999 17.1001C9.9999 13.7001 13.6999 10.0001 17.3999 6.3001Z" fill="black"/>
<path d="M24 23.7C28.8 23.7 33.5999 23.6999 38.2999 23.7999C42.3999 23.8999 44.4999 24 45.0999 25.2C45.6999 26.5 44.4 27.7999 41.5 30.7999C38 34.3999 34.2 38 30.5 41.7C28.7 43.5 27.8 44.4 26.7 44.9C25.6 45.4 24.4 45.4 21.9 45.4C18.8 45.4 15.6999 45.2999 12.4999 45.2999C8.39995 45.1999 6.29995 45.1 5.69995 43.9C5.09995 42.6 6.39995 41.2999 9.29995 38.2999C14.1 33.4999 19.2 28.6 24 23.7Z" fill="black"/>
</svg>
