<svg width="42" height="43" viewBox="0 0 42 43" fill="none" xmlns="http://www.w3.org/2000/svg">
<path fill-rule="evenodd" clip-rule="evenodd" d="M39.2999 2.70005C41.1999 4.50005 41.3999 7.3 41.4999 13C41.5499 14.85 41.5749 16.6751 41.5999 18.5001C41.6249 20.3251 41.6499 22.15 41.6999 24C41.6999 29.7001 41.4999 32.5 39.6999 34.3C37.7999 36.2001 34.8999 36.3001 29.1999 36.4001H15.9999C13.7999 36.4001 12.6999 36.4001 11.6999 36.7001C10.6999 37.1001 9.7999 37.7 8.1999 39.1C7.6999 39.5 7.1999 39.925 6.69989 40.35C6.19989 40.775 5.69989 41.2001 5.19989 41.6C4.79989 41.9 4.19989 42.1 3.59989 42.1C2.19989 42 0.99989 40.8001 0.89989 39.4001C0.39989 30.6001 0.29989 21.8 0.49989 13C0.69989 7.4 0.89989 4.60005 2.69989 2.70005C4.49989 0.800049 7.2999 0.600049 12.9999 0.500049C18.2999 0.400049 23.6999 0.400049 28.9999 0.500049C34.5999 0.700049 37.3999 0.800049 39.2999 2.70005ZM13 15.9C11.9 16 10.9 16.9 10.8 18C10.5 23.5 15.6 28.1 21 28.2C26.4 28.1 31.5 23.5 31.2 18C31.1 16.9 30.1 15.9 29 15.9C23.7 15.7 18.3 15.7 13 15.9Z" fill="black"/>
</svg>
